<?xml version="1.0" encoding="UTF-8"?><svg id="uuid-342e6e70-2373-4a55-9868-9bc461d3401b" xmlns="http://www.w3.org/2000/svg" viewBox="0 0 283.5 55.7">
<title>Lexmark logo - Brandlogos.net</title><path d="M270,22.1l-9.8,9,9.8,9v5.2h-.3l-14.6-13.3v12.6h-4.2V6.4h4.2v23.9l14.6-13.2h.4v5h-.1ZM78.9,44.6h21.6v-4.3h-17.2V7.7h-4.4v36.9ZM115.5,17.1c-6.6,0-12.7,5.4-12.7,14.1s5.5,14,13.5,14c3.5,0,6.8-.9,9.8-3v-4.6c-3.1,2.6-6.5,3.7-9.6,3.7-4.8,0-9-3-9.4-8.5h20.2c0-.5.2-1.7.2-2.2-.1-8.9-5.5-13.5-12-13.5ZM115.5,20.9c3.7,0,7.6,2.4,7.7,8.2h-16.2c.3-4.5,3.7-8.2,8.5-8.2ZM186.6,17.1c-3.6,0-6.2,1.9-7.7,4.7-1.3-3-3.7-4.7-7.5-4.7-3.3,0-5.8,1.9-7.2,4.5h-.2l-.5-4h-3.3v27h4.3v-17c0-3.3,2-6.4,5.8-6.4,3.6,0,5.2,2.1,5.2,6v17.4h4.3v-17.3c0-3.1,2.1-6.1,5.7-6.1s5.3,2.1,5.3,6v17.4h4.3v-18c.1-5.6-2.6-9.5-8.5-9.5ZM212.5,17.1c-6.4,0-12.4,5.4-12.4,14.1s6,14,12.4,14c4,0,7.8-1.9,9.9-5.6h.1l.5,5h3.5v-27h-3.5l-.5,5h-.1c-2-3.6-5.8-5.5-9.9-5.5ZM213.3,21.1c5.1,0,8.9,4.1,8.9,10s-3.8,10-8.9,10-8.9-4-8.9-10c0-6,3.9-10,8.9-10ZM244.8,17.3c-2.3,0-5.9,1.1-7.7,4.6h0l-.4-4.3h-3.4v27h4.3v-15.5c0-6.2,5-8.2,9.2-7.3v-4.3c-.8-.1-1.3-.2-2-.2ZM154.7,17h-.3l-11.3,11.2-11.2-11.2h-.3v5.4l8.7,8.7-8.7,8.6v5.5h.3l11.1-11.2,11.3,11.3h.4v-5.5l-8.7-8.7,8.7-8.8v-5.3ZM272.1,6.7v-.6h4.5v.6h-1.9v4.5h-.7v-4.5h-1.9ZM278.8,6.1l1.9,4.3,1.9-4.3h.9v5.1h-.5v-4.3h0l-1.9,4.2h-.6l-1.9-4.2h0v4.2h-.6v-5h.8Z" style="fill:#32323c;"/><polygon points="55.7 44.8 55.7 0 44.8 0 27.9 16.9 55.7 44.8" style="fill:#008a44;"/><polygon points="0 10.9 0 55.7 10.9 55.7 27.8 38.7 0 10.9" style="fill:#3af23a;"/><polygon points="10.9 55.7 55.7 55.7 55.7 44.8 38.8 27.8 10.9 55.7" style="fill:#006446;"/><polygon points="44.8 0 0 0 0 10.9 16.9 27.8 44.8 0" style="fill:#00c425;"/></svg>